<svg width="20" height="20" viewBox="0 0 20 20" fill="none" xmlns="http://www.w3.org/2000/svg">
<g clip-path="url(#clip0_1659_3304)">
<g clip-path="url(#clip1_1659_3304)">
<path d="M19.4631 4.25636C19.4631 4.00263 19.3098 3.77401 19.0752 3.67757L10.2374 0.0469287C10.085 -0.0156429 9.91421 -0.0156429 9.76185 0.0469287L0.924077 3.67757C0.689394 3.77397 0.536133 4.00263 0.536133 4.25636V15.7436C0.536133 15.9974 0.689355 16.226 0.924077 16.3224L9.76185 19.9531C9.91257 20.015 10.082 20.0163 10.2366 19.953C10.2442 19.9505 9.90956 20.0878 19.0752 16.3224C19.3099 16.226 19.4631 15.9974 19.4631 15.7436V4.25636ZM9.99962 7.26316L6.74324 5.92541L13.7806 2.85546L17.2548 4.28268L9.99962 7.26316ZM1.78757 5.24248L4.59707 6.39666V9.65288C4.59707 9.99844 4.87723 10.2786 5.22279 10.2786C5.56834 10.2786 5.8485 9.99844 5.8485 9.65288V6.91076L9.3739 8.35902V18.4408L1.78757 15.3242V5.24248ZM9.99962 1.30215L12.1687 2.19325L5.13135 5.26321L2.74444 4.28264L9.99962 1.30215ZM10.6253 8.35902L18.2117 5.24248V15.3242L10.6253 18.4408V8.35902Z" fill="#E60031" stroke="#E60031" stroke-width="0.333333"/>
</g>
</g>
<defs>
<clipPath id="clip0_1659_3304">
<rect width="20" height="20" fill="white"/>
</clipPath>
<clipPath id="clip1_1659_3304">
<rect width="20" height="20" fill="white"/>
</clipPath>
</defs>
</svg>
