<svg width="20" height="20" viewBox="0 0 20 20" fill="none" xmlns="http://www.w3.org/2000/svg">
<g clip-path="url(#clip0_1659_3309)">
<path d="M16.3056 0.833344H6.0642V4.22275L5.0452 3.20375L4.8358 3.41315L3.16238 1.73973L0.833008 4.06907L2.50646 5.74252L2.29702 5.95196L6.0642 9.7191V19.1667H19.1385V3.66631L16.3056 0.833344ZM16.1486 2.19556L17.7763 3.82325H16.1486V2.19556ZM2.3522 4.06907L3.16238 3.25886L4.07622 4.17273L3.26604 4.98291L2.3522 4.06907ZM5.04523 4.72291L8.35361 8.03129L7.1246 9.2603L3.81626 5.95192L5.04523 4.72291ZM14.067 14.971L12.6515 14.4731L13.5767 13.5479L14.067 14.971ZM11.7349 13.8706L7.88418 10.0199L9.11319 8.79087L12.9638 12.6415L11.7349 13.8706ZM7.13842 18.0925V10.7933L11.58 15.2349L14.9999 16.438L15.527 15.9108L14.3572 12.5158L7.13842 5.29701V1.90756H15.0744V4.89747H18.0643V18.0925H7.13842Z" fill="#C0C0C0" stroke="#C0C0C0" stroke-width="0.5"/>
</g>
<defs>
<clipPath id="clip0_1659_3309">
<rect width="20" height="20" fill="white"/>
</clipPath>
</defs>
</svg>
