<svg width="20" height="20" viewBox="0 0 20 20" fill="none" xmlns="http://www.w3.org/2000/svg">
<path d="M5.98533 9.48042C7.90986 9.48042 9.47557 7.91474 9.47557 5.99021C9.47557 4.06567 7.9099 2.5 5.98533 2.5C4.06079 2.5 2.49512 4.06567 2.49512 5.99021C2.49512 7.91474 4.06079 9.48042 5.98533 9.48042ZM5.98533 3.79332C7.19669 3.79332 8.18217 4.77881 8.18217 5.99014C8.18217 7.20146 7.19669 8.18695 5.98533 8.18695C4.77397 8.18695 3.78851 7.20146 3.78851 5.99014C3.78851 4.77885 4.77397 3.79332 5.98533 3.79332Z" fill="#C0C0C0" stroke="#C0C0C0" stroke-width="0.5"/>
<path d="M14.0137 9.48042C15.9382 9.48042 17.5039 7.91474 17.5039 5.99021C17.5039 4.06567 15.9382 2.5 14.0137 2.5C12.0891 2.5 10.5234 4.06567 10.5234 5.99021C10.5235 7.91471 12.0892 9.48042 14.0137 9.48042ZM14.0137 3.79332C15.225 3.79332 16.2105 4.77881 16.2105 5.99014C16.2105 7.20146 15.225 8.18695 14.0137 8.18695C12.8024 8.18695 11.8168 7.20146 11.8168 5.99014C11.8169 4.77885 12.8024 3.79332 14.0137 3.79332Z" fill="#C0C0C0" stroke="#C0C0C0" stroke-width="0.5"/>
<path d="M9.9995 12.0111C6.97962 8.24938 0.833008 10.3816 0.833008 15.243V16.9904C0.833008 17.3475 1.12255 17.6371 1.47969 17.6371H10.4907H18.5197C18.8768 17.6371 19.1663 17.3475 19.1663 16.9904V15.243C19.1663 10.3801 13.0155 8.2526 9.9995 12.0111ZM9.84406 16.3437H2.1264V15.243C2.1264 13.1153 3.85754 11.3844 5.98543 11.3844C8.13343 11.3844 9.84402 13.1223 9.84402 15.243V16.3437H9.84406ZM17.8729 16.3437H11.1374C11.1374 15.135 11.2144 14.3715 10.7256 13.222C11.4259 12.0812 12.6596 11.3844 14.0139 11.3844C16.1418 11.3844 17.8729 13.1153 17.8729 15.243V16.3437H17.8729Z" fill="#C0C0C0" stroke="#C0C0C0" stroke-width="0.5"/>
</svg>
