<svg width="20" height="20" viewBox="0 0 20 20" fill="none" xmlns="http://www.w3.org/2000/svg">
<g clip-path="url(#clip0_1659_3323)">
<path fill-rule="evenodd" clip-rule="evenodd" d="M10.0187 0.833344C4.95799 0.833344 0.831061 4.95376 0.831055 10.0144C0.831042 15.0752 4.95797 19.2004 10.0187 19.2004C15.0794 19.2004 19.1982 15.0752 19.1982 10.0144C19.1981 4.95376 15.0794 0.833344 10.0187 0.833344ZM10.0187 2.50263C14.1772 2.50263 17.5289 5.85591 17.5289 10.0144C17.5289 11.3336 17.1898 12.57 16.5964 13.6465C15.5674 12.5841 14.301 11.7976 12.9139 11.3333C13.6968 10.5724 14.1886 9.51419 14.1886 8.34352C14.1887 6.04861 12.3136 4.17356 10.0187 4.17356C7.72374 4.17356 5.84054 6.04861 5.84056 8.34352C5.84056 9.51416 6.3341 10.5724 7.11861 11.3333C5.73112 11.7976 4.46515 12.5855 3.43606 13.6481C2.8412 12.5712 2.50034 11.3344 2.50035 10.0144C2.50035 5.85591 5.86014 2.50263 10.0187 2.50263ZM7.50985 8.34352C7.50984 6.95075 8.6259 5.84285 10.0187 5.84285C11.4115 5.84285 12.5194 6.95075 12.5194 8.34352C12.5194 9.73347 11.4156 10.8516 10.017 10.8507C8.61997 10.8499 7.50985 9.73238 7.50985 8.34352ZM15.602 15.0354C14.2287 16.5646 12.2423 17.5311 10.0187 17.5311C7.79593 17.5311 5.80695 16.5652 4.43209 15.037C5.84504 13.4532 7.86197 12.5198 10.017 12.5208C12.1715 12.5218 14.1893 13.4519 15.602 15.0354Z" fill="#C0C0C0"/>
</g>
<defs>
<clipPath id="clip0_1659_3323">
<rect width="20" height="20" fill="white"/>
</clipPath>
</defs>
</svg>
